<?xml version="1.0" encoding="utf-8"?>
<!-- Generator: Adobe Illustrator 23.0.3, SVG Export Plug-In . SVG Version: 6.00 Build 0)  -->
<svg version="1.1" id="Calque_1" xmlns="http://www.w3.org/2000/svg" xmlns:xlink="http://www.w3.org/1999/xlink" x="0px" y="0px"
	 viewBox="0 0 31.3 31.3" style="enable-background:new 0 0 31.3 31.3;" xml:space="preserve">
<style type="text/css">
	.st0{fill:#FFFFFF;}
</style>
<title>UI icon vol.1</title>
<g>
	<path class="st0" d="M26.4,15.4c0.1,6.2-4.8,11.3-11,11.4C9.3,26.9,4.2,22,4.1,15.8C4,9.7,8.9,4.6,15,4.5
		C21.2,4.3,26.3,9.2,26.4,15.4z M15.3,18.7C15.3,18.7,15.3,18.7,15.3,18.7c-0.6,0-1.4,0.1-2.1,0.1c-1.8,0.1-3.4,1.6-3.8,3.4
		c-0.1,0.3,0,0.5,0.3,0.7c3.2,2.5,8,2.4,11.2-0.2c0.3-0.3,0.4-0.5,0.3-0.9c-0.5-1.6-1.5-2.7-3.1-3C17.2,18.7,16.2,18.8,15.3,18.7z
		 M15.3,17.5c1.9,0,3.5-1.7,3.5-3.6c0-1.9-1.6-3.4-3.5-3.4c-1.9,0-3.5,1.6-3.5,3.6C11.7,15.9,13.4,17.5,15.3,17.5z"/>
</g>
</svg>
