<?xml version="1.0" encoding="utf-8"?>
<!-- Generator: Adobe Illustrator 23.0.3, SVG Export Plug-In . SVG Version: 6.00 Build 0)  -->
<svg version="1.1" id="Calque_1" xmlns="http://www.w3.org/2000/svg" xmlns:xlink="http://www.w3.org/1999/xlink" x="0px" y="0px"
	 viewBox="0 0 700 700" style="enable-background:new 0 0 700 700;" xml:space="preserve">
<path d="M517.6,353.9h-65.9c12.3-14.6,28.6-42.1,16.9-75.6c13.6-10.2,20.8-27.4,17.6-44.7c-4.5-24.8-28.3-41.4-53.2-36.8
	c-12,2.2-22.5,8.9-29.4,19c-7,10-9.6,22.2-7.4,34.2c2,10.8,7.7,20.2,15.8,26.9c-5.2,2-13.7,4.1-26.4,4.3c-19,0.6-28.3-6.9-28.6-7.2
	c-0.3-0.3-0.7-0.5-1-0.7c-4.4-2.4-14.4-4.4-21.1,4.7c-2.9,4-3.2,9.5-0.9,15.1c2,4.9,6.3,10.1,12.3,14.3c0.1,0.4,8.7,14.8,8.7,14.8
	c-2.8-2-5.5-3.9-7.5-5.4c-5.4-4.8-19.2-11-32.7-0.2c-11.2,9-30.7,30.3-36.8,37.2l-95.3,0c-1.9,0-3.8,0.9-5,2.4
	c-1.2,1.5-1.7,3.5-1.3,5.3c5.9,27.8,21.3,37.1,22,37.5c3,1.8,6.8,0.8,8.7-2.2c1.8-3,0.9-6.9-2.1-8.8c-0.4-0.2-8.7-5.6-14-21.5h190.7
	l10.9,18l-6.4,3.8c-1.5,0.9-2.5,2.3-2.9,3.9c-0.4,1.7-0.1,3.4,0.7,4.8l17.9,29.7c1.2,2,3.3,3.1,5.5,3.1c1.1,0,2.3-0.3,3.3-0.9
	l22.9-13.8c1.5-0.9,2.5-2.3,2.9-3.9c0.4-1.7,0.1-3.4-0.7-4.8L418,377c-1.8-3-5.7-4-8.8-2.2l-5.6,3.3l-6.9-11.4h114.7
	c-0.5,5.2-3.2,13.8-14,21.9c-2.8,2.1-3.4,6.1-1.3,8.9c1.3,1.7,3.2,2.6,5.1,2.6c1.3,0,2.7-0.4,3.8-1.3c23.6-17.8,18.8-39.1,18.6-40
	C523.2,356,520.6,353.9,517.6,353.9L517.6,353.9z M410.4,389l11.3,18.8l-11.9,7.2l-11.3-18.8L410.4,389z M328,353.9l1.3-1.5
	c0.2-0.2,0.5-0.5,0.6-0.8c0.4-0.6,1.8-2.1,3-2.3c0.2-0.1,0.9-0.2,2.2,0.8c1.6,1.1,3.3,2.5,5,3.8L328,353.9z M359.1,353.9
	c-3.3-3.2-10.2-9.8-16.7-14.3c-4.8-3.3-9.2-3.4-12.1-2.8c-5.9,1.2-9.6,5.7-10.7,7.3l-8.8,9.8h-15.5c8.3-9,20.1-21.3,27.5-27.2
	c8.1-6.5,15-1.3,16.6,0.1c1.7,1.3,16.5,12.6,24.3,15.4c1.3,0.5,2.6,0.9,4,1.2l6.4,10.5L359.1,353.9L359.1,353.9z M375.7,331.9
	l-10-16.6c0,0,0.1,0,0.2,0c10.6,1.7,21.7,2.2,30.1,2.4c-5.8,6.6-11,12.2-12.6,13.3C382.3,331.8,379.3,332.2,375.7,331.9L375.7,331.9
	z M434.2,353.9h-45.2l-5.9-9.7c2.9-0.5,5.5-1.4,7.6-2.9c4.8-3.4,19.7-20.8,24.1-26.1c1.6-1.9,2-4.7,0.9-7c-1.1-2.3-3.3-3.8-6-3.6
	c-0.2,0-22.2,1-41.9-2.1c-11.3-1.8-18.5-8.1-21.3-13c-1.4-2.5-1.3-3.9-1.3-4.1c1.1-1.5,2.6-1.9,4.3-1.2c3,2.2,15.2,9.8,36.3,9.6
	c22.5-0.4,34.3-6.1,39.3-9.4c1.7,0.6,3.4,1.3,5.2,1.7c0.5,0.1,1,0.2,1.5,0.2c2.9,0,5.5-2,6.2-4.9c0.8-3.4-1.3-6.9-4.7-7.7
	c-10.5-2.1-14.9-5.7-20.6-13.3c4.7-0.2,9.4-1.1,13.6-1.9c4.1-1.1,4.2-2.4,3.5-3.8c-1.3-1-2.3-0.4-7.3,0.8c-0.1,0-0.1,0-0.2,0.1
	c-2.8,0.8-6.1,2.1-11.3-1.3c-0.8-0.5-1.3-1.3-1.4-2.2c-0.3-1.7-0.8-4.3-0.8-4.5c-0.3-1.8-0.4-3.6-0.5-5.5c2.2-1,3.9-3.1,4.2-5.7
	c0.2-2.3-0.7-4.3-2.3-5.8c1-2.7,2.1-5.3,3.8-7.7c5-7.2,12.5-12.1,21.2-13.7c17.9-3.3,35.1,8.6,38.3,26.5
	c2.7,14.8-4.9,29.5-18.5,35.8c-3.2,1.5-4.6,5.3-3.1,8.5c0.9,2,2.8,3.2,4.8,3.5C468.8,320,441.5,347.5,434.2,353.9L434.2,353.9z"/>
<path d="M427.9,232.4l-0.8-0.1c-3.1,0-5.6,2.3-5.9,5.4c-0.3,3.2,1.9,6,5.4,6.5l0.6,0c3,0,5.6-2.3,5.9-5.3
	C433.4,235.8,431.2,232.9,427.9,232.4L427.9,232.4z"/>
<path d="M511.7,438.7c-7.1,8.6-16.4,13.3-26.2,13.3h0c-8.9,0-17.3-4.1-23.8-11.4c-0.4-1-0.9-2-1.8-2.8c-2.7-2.2-6.7-1.9-9,0.9
	c-7.1,8.6-16.4,13.3-26.2,13.3c-8.9,0-17.3-4.1-23.8-11.4c-0.4-1-0.9-2-1.8-2.8c-2.7-2.2-6.7-1.9-9,0.9
	c-7.1,8.6-16.4,13.3-26.2,13.3c-8.9,0-17.3-4.1-23.8-11.4c-0.4-1-0.9-2-1.8-2.8c-2.7-2.2-6.7-1.8-9,0.9
	c-7.1,8.6-16.4,13.3-26.2,13.3h0c-8.9,0-17.3-4.1-23.8-11.4c-0.4-1-0.9-2-1.8-2.8c-2.7-2.2-6.7-1.9-9,0.9
	c-7.1,8.6-16.4,13.3-26.2,13.3h0c-9.4,0-18.2-4.4-24.8-12.4c-2.2-2.7-6.3-3.1-9-0.9c-2.7,2.2-3.1,6.3-0.9,9
	c9.1,11,21.4,17.1,34.6,17.1h0c11.1,0,21.9-4.5,30.7-12.4c8.5,8,19,12.4,30.2,12.4h0c11.1,0,21.9-4.5,30.6-12.4
	c8.5,8,19,12.4,30.2,12.4h0c11.1,0,21.9-4.5,30.7-12.4c8.5,8,19,12.4,30.2,12.4c11.1,0,21.9-4.5,30.7-12.4c8.5,8,19,12.4,30.2,12.4
	h0c13.5,0,26.6-6.5,36-17.9c2.3-2.7,1.9-6.7-0.9-9C518,435.6,513.9,435.9,511.7,438.7L511.7,438.7z"/>
<path d="M481.3,477.8c-7.1,8.6-16.4,13.3-26.2,13.3h0c-8.9,0-17.3-4-23.8-11.4c-0.4-1-0.9-2-1.8-2.8c-2.7-2.2-6.8-1.8-9,0.9
	c-7.1,8.6-16.4,13.3-26.2,13.3c-8.9,0-17.3-4-23.8-11.4c-0.4-1-0.9-2-1.8-2.8c-2.7-2.2-6.7-1.8-9,0.9c-7.1,8.6-16.4,13.3-26.2,13.3
	c-8.9,0-17.3-4-23.8-11.4c-0.4-1-0.9-2-1.8-2.8c-2.7-2.2-6.8-1.8-9,0.9c-7.1,8.6-16.4,13.3-26.2,13.3h0c-8.9,0-17.3-4-23.8-11.4
	c-0.4-1-0.9-2-1.8-2.8c-2.7-2.2-6.7-1.8-9,0.9c-7.1,8.6-16.4,13.3-26.2,13.3c-9.4,0-18.2-4.4-24.8-12.4c-2.2-2.7-6.3-3.1-9-0.9
	c-2.7,2.2-3.1,6.3-0.9,9c9.1,11,21.4,17.1,34.6,17.1c11.1,0,21.9-4.5,30.7-12.4c8.5,8,19,12.4,30.2,12.4h0
	c11.1,0,21.9-4.5,30.7-12.4c8.5,8,19,12.4,30.2,12.4c11.1,0,21.9-4.5,30.7-12.4c8.5,8,19,12.4,30.2,12.4c11.1,0,21.9-4.5,30.7-12.4
	c8.5,8,19,12.4,30.2,12.4h0c13.5,0,26.6-6.5,36-17.9c2.2-2.7,1.9-6.8-0.9-9C487.5,474.7,483.5,475.1,481.3,477.8L481.3,477.8z"/>
<path d="M343.1,64.4c-159.9,0-289.5,129.6-289.5,289.5c0,159.9,129.6,289.5,289.5,289.5c159.9,0,289.5-129.6,289.5-289.5
	C632.6,194.1,503,64.4,343.1,64.4z M343.1,616.1c-144.8,0-262.2-117.4-262.2-262.2S198.3,91.8,343.1,91.8
	c144.8,0,262.2,117.4,262.2,262.2S487.9,616.1,343.1,616.1z"/>
</svg>
