<?xml version="1.0" encoding="utf-8"?>
<!-- Generator: Adobe Illustrator 23.0.3, SVG Export Plug-In . SVG Version: 6.00 Build 0)  -->
<svg version="1.1" id="Calque_1" xmlns="http://www.w3.org/2000/svg" xmlns:xlink="http://www.w3.org/1999/xlink" x="0px" y="0px"
	 viewBox="0 0 238 182" style="enable-background:new 0 0 238 182;" xml:space="preserve">
<style type="text/css">
	.st0{fill:#FFFFFF;}
</style>
<g>
	<path class="st0" d="M185.4,142.7H48c-3.8,0-6.8-3.1-6.8-6.8V48c0-3.8,3.1-6.8,6.8-6.8h137.4c3.8,0,6.8,3.1,6.8,6.8v87.9
		C192.2,139.7,189.1,142.7,185.4,142.7z M48,43.7c-2.4,0-4.3,1.9-4.3,4.3v87.9c0,2.4,1.9,4.3,4.3,4.3h137.4c2.4,0,4.3-1.9,4.3-4.3
		V48c0-2.4-1.9-4.3-4.3-4.3H48z"/>
	<path class="st0" d="M46.4,139.8l59.8-47l1.5,1.9l-59.8,47L46.4,139.8z"/>
	<path class="st0" d="M126.4,94.1l1.6-1.9l57.9,48l-1.6,1.9L126.4,94.1z"/>
	<path class="st0" d="M116.7,101.1c-1.5,0-3-0.5-4.2-1.5L44,45.8l1.5-1.9L114,97.7c1.6,1.3,3.8,1.3,5.4,0l68.5-53.9l1.5,1.9
		l-68.5,53.9C119.7,100.6,118.2,101.1,116.7,101.1L116.7,101.1z"/>
</g>
</svg>
