<?xml version="1.0" encoding="utf-8"?>
<!-- Generator: Adobe Illustrator 23.0.3, SVG Export Plug-In . SVG Version: 6.00 Build 0)  -->
<svg version="1.1" id="Calque_1" xmlns="http://www.w3.org/2000/svg" xmlns:xlink="http://www.w3.org/1999/xlink" x="0px" y="0px"
	 viewBox="0 0 700 700" style="enable-background:new 0 0 700 700;" xml:space="preserve">
<path d="M350,82c-72.8,0-81.9,0.3-110.5,1.6c-28.5,1.3-48,5.8-65.1,12.5c-17.6,6.8-32.6,16-47.5,30.9s-24.1,29.8-30.9,47.5
	c-6.6,17.1-11.1,36.5-12.5,65.1C82.3,268.1,82,277.2,82,350s0.3,81.9,1.6,110.5c1.3,28.5,5.8,48,12.5,65.1
	c6.8,17.6,16,32.6,30.9,47.5c14.9,14.9,29.8,24.1,47.5,30.9c17.1,6.6,36.5,11.1,65.1,12.5c28.6,1.3,37.7,1.6,110.5,1.6
	s81.9-0.3,110.5-1.6c28.5-1.3,48-5.9,65.1-12.5c17.6-6.8,32.6-16,47.5-30.9c14.9-14.9,24.1-29.8,30.9-47.5
	c6.6-17.1,11.1-36.5,12.5-65.1c1.3-28.6,1.6-37.7,1.6-110.5s-0.3-81.9-1.6-110.5c-1.3-28.5-5.9-48-12.5-65.1
	c-6.8-17.6-16-32.6-30.9-47.5c-14.9-14.9-29.8-24.1-47.5-30.9c-17.1-6.6-36.5-11.1-65.1-12.5C431.9,82.3,422.8,82,350,82z
	 M350,130.2c71.5,0,80.1,0.4,108.3,1.6c26.1,1.2,40.3,5.6,49.7,9.3c12.6,4.8,21.4,10.7,30.9,20c9.4,9.4,15.2,18.3,20,30.8
	c3.7,9.4,8,23.6,9.2,49.7c1.3,28.3,1.6,36.8,1.6,108.3s-0.3,80.1-1.7,108.3c-1.4,26.1-5.7,40.3-9.4,49.7
	c-5,12.6-10.7,21.4-20.1,30.9c-9.4,9.4-18.4,15.2-30.8,20c-9.4,3.7-23.8,8-49.9,9.2c-28.5,1.3-36.8,1.6-108.5,1.6
	c-71.7,0-80.1-0.3-108.5-1.7c-26.2-1.4-40.6-5.7-49.9-9.4c-12.7-5-21.4-10.7-30.8-20.1c-9.4-9.4-15.4-18.4-20.1-30.8
	c-3.7-9.4-8-23.8-9.4-49.9c-1-28.1-1.4-36.8-1.4-108.2c0-71.4,0.4-80.1,1.4-108.6c1.4-26.1,5.7-40.5,9.4-49.9
	c4.7-12.7,10.7-21.4,20.1-30.8c9.4-9.4,18.1-15.4,30.8-20.1c9.4-3.7,23.5-8.1,49.6-9.4c28.5-1,36.8-1.3,108.5-1.3
	C349,129.6,350,130.2,350,130.2z M350,212.4c-76,0-137.6,61.6-137.6,137.6c0,76,61.6,137.6,137.6,137.6c76,0,137.6-61.6,137.6-137.6
	C487.6,274,426,212.4,350,212.4z M350,439.3c-49.4,0-89.3-40-89.3-89.3s40-89.3,89.3-89.3s89.3,40,89.3,89.3S399.4,439.3,350,439.3z
	 M525.2,207c0,17.8-14.4,32.2-32.2,32.2c-17.8,0-32.2-14.4-32.2-32.2s14.4-32.1,32.2-32.1C510.8,174.8,525.2,189.2,525.2,207z"/>
</svg>
