<?xml version="1.0" encoding="utf-8"?>
<!-- Generator: Adobe Illustrator 23.0.3, SVG Export Plug-In . SVG Version: 6.00 Build 0)  -->
<svg version="1.1" id="Calque_1" xmlns="http://www.w3.org/2000/svg" xmlns:xlink="http://www.w3.org/1999/xlink" x="0px" y="0px"
	 viewBox="0 0 700 700" style="enable-background:new 0 0 700 700;" xml:space="preserve">
<path d="M622,178.4c-17.4,7.9-36.7,12.7-55.5,15.8c8.9-1.5,22-17.7,27.3-24.2c8-10,14.7-21.3,18.4-33.6c0.5-1,0.8-2.2-0.1-2.9
	c-1.2-0.5-2-0.2-2.9,0.2c-21,11.2-42.7,19.4-65.8,25.2c-1.9,0.5-3.3,0-4.5-1.2c-1.9-2.2-3.7-4.2-5.7-5.9
	c-9.7-8.3-20.1-14.7-31.9-19.5c-15.4-6.3-32.3-8.9-48.9-7.9c-16.2,1.1-32,5.6-46.4,13.1s-27.2,18-37.4,30.6
	c-10.6,13-18.3,28.4-22.3,44.7c-3.8,15.7-3.5,31.3-1.2,47.2c0.4,2.6,0.1,3-2.3,2.6c-90.3-13.4-165.2-45.8-226-115
	c-2.6-3-4.1-3-6.2,0.2c-26.6,40-13.7,104.1,19.5,135.5c4.4,4.2,9,8.4,13.9,12.2c-1.8,0.4-23.9-2-43.6-12.2c-2.6-1.7-4-0.7-4.2,2.3
	c-0.2,4.3,0.1,8.3,0.7,12.9c5.1,40.4,33.1,77.8,71.4,92.4c4.6,1.9,9.6,3.6,14.5,4.4c-8.7,1.9-17.7,3.3-42.8,1.3
	c-3.1-0.6-4.3,1-3.1,4c18.8,51.3,59.4,66.6,89.9,75.3c4.1,0.7,8.1,0.7,12.2,1.7c-0.3,0.4-0.5,0.4-0.7,0.7
	c-10.1,15.4-45.1,26.8-61.4,32.5c-29.6,10.4-61.9,15-93.2,11.9c-5-0.7-6.1-0.7-7.4,0c-1.4,0.8-0.2,2,1.4,3.3
	c6.4,4.2,12.8,7.9,19.4,11.5c19.9,10.5,40.6,18.9,62.3,24.9c112,30.9,238.1,8.2,322.2-75.3c66-65.6,89.2-156.1,89.2-246.6
	c0-3.5,4.2-5.5,6.7-7.4c17.2-12.9,31-28.4,43.9-45.6c2.9-3.9,2.9-7.3,2.9-8.7c0-0.2,0-0.5,0-0.5C624.3,176.9,624.2,177.4,622,178.4z
	"/>
</svg>
