<?xml version="1.0" encoding="utf-8"?>
<!-- Generator: Adobe Illustrator 23.0.3, SVG Export Plug-In . SVG Version: 6.00 Build 0)  -->
<svg version="1.1" id="Calque_1" xmlns="http://www.w3.org/2000/svg" xmlns:xlink="http://www.w3.org/1999/xlink" x="0px" y="0px"
	 viewBox="0 0 700 700" style="enable-background:new 0 0 700 700;" xml:space="preserve">
<path d="M614.8,564.8L483.2,432.5c63.8-88.2,56.7-212.6-22.8-292.2c-88.2-88.2-231.5-88.2-319.7,0s-88.2,231.5,0,319.7
	c79.5,79.5,204,86.6,292.2,22.8l132.3,132.3c14.2,14.2,36.2,14.2,50.4,0C628.9,601,628.9,579,614.8,564.8L614.8,564.8z M176.1,424.6
	c-68.5-68.5-68.5-180.3,0-248.9c68.5-68.5,180.3-68.5,248.9,0c68.5,68.5,68.5,180.3,0,248.9C356.5,493.1,244.6,493.1,176.1,424.6
	L176.1,424.6z"/>
<path d="M390.3,274.2h-63v-63c0-14.2-11.8-26.8-26.8-26.8c-14.2,0-26.8,11.8-26.8,26.8v63h-63c-14.2,0-26.8,11.8-26.8,26.8
	c0,14.2,11.8,26.8,26.8,26.8h63v63c0,14.2,11.8,26.8,26.8,26.8c14.2,0,26.8-11.8,26.8-26.8v-63h63c14.2,0,26.8-11.8,26.8-26.8
	C416.3,286,404.5,274.2,390.3,274.2L390.3,274.2z"/>
</svg>
